<mxfile host="65bd71144e">
    <diagram id="KhgrVJ-s7kBT1avsDkQ4" name="Page-1">
        <mxGraphModel dx="1901" dy="951" grid="1" gridSize="10" guides="1" tooltips="1" connect="1" arrows="1" fold="1" page="1" pageScale="1" pageWidth="850" pageHeight="1100" background="#ffffff" math="0" shadow="0">
            <root>
                <mxCell id="0"/>
                <mxCell id="1" parent="0"/>
                <mxCell id="3" value="main.go" style="swimlane;fontColor=#000000;strokeColor=#000000;" vertex="1" parent="1">
                    <mxGeometry x="200" y="140" width="370" height="180" as="geometry"/>
                </mxCell>
                <mxCell id="44" style="edgeStyle=orthogonalEdgeStyle;html=1;entryX=0;entryY=0.5;entryDx=0;entryDy=0;rounded=0;fontColor=#000000;strokeColor=#000000;" edge="1" parent="3" source="9" target="6">
                    <mxGeometry relative="1" as="geometry"/>
                </mxCell>
                <mxCell id="9" value="&lt;span style=&quot;text-align: left;&quot;&gt;c = config.New()&lt;/span&gt;" style="text;html=1;align=center;verticalAlign=middle;resizable=0;points=[];autosize=1;fontColor=#000000;strokeColor=none;" vertex="1" parent="3">
                    <mxGeometry x="18" y="40" width="110" height="30" as="geometry"/>
                </mxCell>
                <mxCell id="10" value="&lt;span style=&quot;text-align: left;&quot;&gt;l = logger.New(c.Debug)&lt;/span&gt;" style="text;html=1;align=center;verticalAlign=middle;resizable=0;points=[];autosize=1;fontColor=#000000;strokeColor=none;" vertex="1" parent="3">
                    <mxGeometry x="20" y="70" width="150" height="30" as="geometry"/>
                </mxCell>
                <mxCell id="11" value="&lt;span style=&quot;text-align: left;&quot;&gt;&lt;font&gt;v = validator.New()&lt;/font&gt;&lt;/span&gt;" style="text;html=1;align=center;verticalAlign=middle;resizable=0;points=[];autosize=1;fontColor=#000000;strokeColor=none;" vertex="1" parent="3">
                    <mxGeometry x="20" y="100" width="120" height="30" as="geometry"/>
                </mxCell>
                <mxCell id="45" style="edgeStyle=orthogonalEdgeStyle;rounded=0;html=1;entryX=0;entryY=0.5;entryDx=0;entryDy=0;fontColor=#000000;strokeColor=#000000;" edge="1" parent="3" source="16" target="7">
                    <mxGeometry relative="1" as="geometry">
                        <Array as="points">
                            <mxPoint x="150" y="145"/>
                            <mxPoint x="150" y="105"/>
                        </Array>
                    </mxGeometry>
                </mxCell>
                <mxCell id="16" value="&lt;span style=&quot;text-align: left;&quot;&gt;r = router.New(l, v)&lt;/span&gt;" style="text;html=1;align=center;verticalAlign=middle;resizable=0;points=[];autosize=1;fontColor=#000000;strokeColor=none;" vertex="1" parent="3">
                    <mxGeometry x="20" y="130" width="120" height="30" as="geometry"/>
                </mxCell>
                <mxCell id="5" value="&lt;font&gt;http.Server&lt;/font&gt;" style="swimlane;fontStyle=0;childLayout=stackLayout;horizontal=1;startSize=26;horizontalStack=0;resizeParent=1;resizeParentMax=0;resizeLast=0;collapsible=1;marginBottom=0;html=1;fontColor=#000000;strokeColor=#000000;" vertex="1" parent="3">
                    <mxGeometry x="200" y="40" width="140" height="78" as="geometry"/>
                </mxCell>
                <mxCell id="6" value="addr: c.Port" style="text;align=left;verticalAlign=top;spacingLeft=4;spacingRight=4;overflow=hidden;rotatable=0;points=[[0,0.5],[1,0.5]];portConstraint=eastwest;whiteSpace=wrap;html=1;fontColor=#000000;strokeColor=#000000;" vertex="1" parent="5">
                    <mxGeometry y="26" width="140" height="26" as="geometry"/>
                </mxCell>
                <mxCell id="7" value="handler: r" style="text;align=left;verticalAlign=top;spacingLeft=4;spacingRight=4;overflow=hidden;rotatable=0;points=[[0,0.5],[1,0.5]];portConstraint=eastwest;whiteSpace=wrap;html=1;fontColor=#000000;strokeColor=#000000;" vertex="1" parent="5">
                    <mxGeometry y="52" width="140" height="26" as="geometry"/>
                </mxCell>
                <mxCell id="46" style="edgeStyle=orthogonalEdgeStyle;rounded=0;html=1;exitX=0.5;exitY=1;exitDx=0;exitDy=0;fontColor=#000000;strokeColor=#000000;" edge="1" parent="1" source="30" target="9">
                    <mxGeometry relative="1" as="geometry">
                        <Array as="points">
                            <mxPoint x="95" y="195"/>
                        </Array>
                    </mxGeometry>
                </mxCell>
                <mxCell id="30" value="config.go" style="swimlane;startSize=23;fontColor=#000000;strokeColor=#000000;" vertex="1" parent="1">
                    <mxGeometry x="10" width="180" height="150" as="geometry"/>
                </mxCell>
                <mxCell id="40" value="&lt;font&gt;confServer&lt;/font&gt;" style="swimlane;fontStyle=0;childLayout=stackLayout;horizontal=1;startSize=26;horizontalStack=0;resizeParent=1;resizeParentMax=0;resizeLast=0;collapsible=1;marginBottom=0;html=1;fontColor=#000000;strokeColor=#000000;" vertex="1" parent="30">
                    <mxGeometry x="12" y="62" width="140" height="78" as="geometry"/>
                </mxCell>
                <mxCell id="41" value="env: SERVER_PORT" style="text;align=left;verticalAlign=top;spacingLeft=4;spacingRight=4;overflow=hidden;rotatable=0;points=[[0,0.5],[1,0.5]];portConstraint=eastwest;whiteSpace=wrap;html=1;fontColor=#000000;strokeColor=#000000;" vertex="1" parent="40">
                    <mxGeometry y="26" width="140" height="26" as="geometry"/>
                </mxCell>
                <mxCell id="42" value="env: SERVER_DEBUG" style="text;align=left;verticalAlign=top;spacingLeft=4;spacingRight=4;overflow=hidden;rotatable=0;points=[[0,0.5],[1,0.5]];portConstraint=eastwest;whiteSpace=wrap;html=1;fontColor=#000000;strokeColor=#000000;" vertex="1" parent="40">
                    <mxGeometry y="52" width="140" height="26" as="geometry"/>
                </mxCell>
                <mxCell id="53" value="github.com/joeshaw/envecode" style="text;html=1;align=center;verticalAlign=middle;resizable=0;points=[];autosize=1;fontColor=#000000;strokeColor=none;" vertex="1" parent="30">
                    <mxGeometry y="32" width="180" height="30" as="geometry"/>
                </mxCell>
                <mxCell id="56" style="edgeStyle=orthogonalEdgeStyle;rounded=0;html=1;exitX=1;exitY=0.5;exitDx=0;exitDy=0;fontColor=#000000;strokeColor=#000000;" edge="1" parent="1" source="48" target="10">
                    <mxGeometry relative="1" as="geometry"/>
                </mxCell>
                <mxCell id="48" value="logger.go" style="swimlane;fontColor=#000000;strokeColor=#000000;" vertex="1" parent="1">
                    <mxGeometry x="-110" y="165" width="170" height="120" as="geometry"/>
                </mxCell>
                <mxCell id="49" value="&lt;font&gt;zerolog.Logger&lt;/font&gt;" style="swimlane;fontStyle=0;childLayout=stackLayout;horizontal=1;startSize=26;horizontalStack=0;resizeParent=1;resizeParentMax=0;resizeLast=0;collapsible=1;marginBottom=0;html=1;fontColor=#000000;strokeColor=#000000;" vertex="1" parent="48">
                    <mxGeometry x="15" y="60" width="140" height="52" as="geometry"/>
                </mxCell>
                <mxCell id="50" value="logLevel" style="text;align=left;verticalAlign=top;spacingLeft=4;spacingRight=4;overflow=hidden;rotatable=0;points=[[0,0.5],[1,0.5]];portConstraint=eastwest;whiteSpace=wrap;html=1;fontColor=#000000;strokeColor=#000000;" vertex="1" parent="49">
                    <mxGeometry y="26" width="140" height="26" as="geometry"/>
                </mxCell>
                <mxCell id="54" value="github.com/rs/zerolog" style="text;html=1;align=center;verticalAlign=middle;resizable=0;points=[];autosize=1;fontColor=#000000;strokeColor=none;" vertex="1" parent="48">
                    <mxGeometry x="15" y="30" width="140" height="30" as="geometry"/>
                </mxCell>
                <mxCell id="57" value="validator.go" style="swimlane;fontColor=#000000;strokeColor=#000000;fillStyle=auto;gradientColor=none;fillColor=default;" vertex="1" parent="1">
                    <mxGeometry x="-80" y="310" width="210" height="70" as="geometry"/>
                </mxCell>
                <mxCell id="61" value="github.com/go-playground/validator" style="text;html=1;align=center;verticalAlign=middle;resizable=0;points=[];autosize=1;fontColor=#000000;strokeColor=none;" vertex="1" parent="57">
                    <mxGeometry y="30" width="210" height="30" as="geometry"/>
                </mxCell>
                <mxCell id="64" style="edgeStyle=orthogonalEdgeStyle;rounded=0;html=1;strokeColor=#000000;fontColor=#000000;exitX=1.005;exitY=0.433;exitDx=0;exitDy=0;exitPerimeter=0;" edge="1" parent="1" source="61" target="11">
                    <mxGeometry relative="1" as="geometry">
                        <Array as="points">
                            <mxPoint x="170" y="353"/>
                            <mxPoint x="170" y="255"/>
                        </Array>
                    </mxGeometry>
                </mxCell>
                <mxCell id="87" style="edgeStyle=orthogonalEdgeStyle;rounded=0;html=1;exitX=0.5;exitY=0;exitDx=0;exitDy=0;strokeColor=#000000;fontFamily=Helvetica;fontSize=12;fontColor=#000000;startSize=26;" edge="1" parent="1" source="65" target="16">
                    <mxGeometry relative="1" as="geometry"/>
                </mxCell>
                <mxCell id="65" value="router.go" style="swimlane;startSize=23;fontColor=#000000;strokeColor=#000000;" vertex="1" parent="1">
                    <mxGeometry x="190" y="360" width="310" height="310" as="geometry"/>
                </mxCell>
                <mxCell id="66" value="&lt;font&gt;/livez&lt;/font&gt;" style="swimlane;fontStyle=0;childLayout=stackLayout;horizontal=1;startSize=26;horizontalStack=0;resizeParent=1;resizeParentMax=0;resizeLast=0;collapsible=1;marginBottom=0;html=1;fontColor=#000000;strokeColor=#000000;" vertex="1" parent="65">
                    <mxGeometry x="20" y="62" width="140" height="52" as="geometry"/>
                </mxCell>
                <mxCell id="67" value="health.Read" style="text;align=left;verticalAlign=top;spacingLeft=4;spacingRight=4;overflow=hidden;rotatable=0;points=[[0,0.5],[1,0.5]];portConstraint=eastwest;whiteSpace=wrap;html=1;fontColor=#000000;strokeColor=#000000;" vertex="1" parent="66">
                    <mxGeometry y="26" width="140" height="26" as="geometry"/>
                </mxCell>
                <mxCell id="69" value="github.com/go-chi/chi" style="text;html=1;align=center;verticalAlign=middle;resizable=0;points=[];autosize=1;fontColor=#000000;strokeColor=none;" vertex="1" parent="65">
                    <mxGeometry x="20" y="32" width="140" height="30" as="geometry"/>
                </mxCell>
                <mxCell id="70" value="&lt;font&gt;/v1&lt;/font&gt;" style="swimlane;fontStyle=0;childLayout=stackLayout;horizontal=1;startSize=26;horizontalStack=0;resizeParent=1;resizeParentMax=0;resizeLast=0;collapsible=1;marginBottom=0;html=1;fontColor=#000000;strokeColor=#000000;" vertex="1" parent="65">
                    <mxGeometry x="20" y="130" width="240" height="150" as="geometry"/>
                </mxCell>
                <mxCell id="71" value="GET /instances - instanceApi.List" style="text;align=left;verticalAlign=middle;spacingLeft=4;spacingRight=4;overflow=hidden;rotatable=0;points=[[0,0.5],[1,0.5]];portConstraint=eastwest;whiteSpace=wrap;html=1;fontColor=#000000;strokeColor=default;" vertex="1" parent="70">
                    <mxGeometry y="26" width="240" height="34" as="geometry"/>
                </mxCell>
                <mxCell id="84" value="POST /instances - instanceApi.Create" style="text;html=1;align=left;verticalAlign=middle;resizable=0;points=[];autosize=1;strokeColor=default;fillColor=none;fontSize=12;fontFamily=Helvetica;fontColor=#000000;" vertex="1" parent="70">
                    <mxGeometry y="60" width="240" height="30" as="geometry"/>
                </mxCell>
                <mxCell id="85" value="GET /instances/{id} - instanceAPI.Read" style="text;html=1;align=left;verticalAlign=middle;resizable=0;points=[];autosize=1;strokeColor=default;fillColor=none;fontSize=12;fontFamily=Helvetica;fontColor=#000000;" vertex="1" parent="70">
                    <mxGeometry y="90" width="240" height="30" as="geometry"/>
                </mxCell>
                <mxCell id="86" value="DELETE /instances/{id} - instanceAPI.Delete" style="text;html=1;align=center;verticalAlign=middle;resizable=0;points=[];autosize=1;strokeColor=default;fillColor=none;fontSize=12;fontFamily=Helvetica;fontColor=#000000;" vertex="1" parent="70">
                    <mxGeometry y="120" width="240" height="30" as="geometry"/>
                </mxCell>
                <mxCell id="91" style="edgeStyle=orthogonalEdgeStyle;rounded=0;html=1;entryX=0;entryY=0.5;entryDx=0;entryDy=0;strokeColor=#000000;fontFamily=Helvetica;fontSize=12;fontColor=#000000;startSize=26;" edge="1" parent="1" source="89" target="67">
                    <mxGeometry relative="1" as="geometry"/>
                </mxCell>
                <mxCell id="89" value="health-handler.go" style="swimlane;fontColor=#000000;strokeColor=#000000;fillStyle=auto;gradientColor=none;fillColor=default;" vertex="1" parent="1">
                    <mxGeometry x="-50" y="426" width="120" height="70" as="geometry"/>
                </mxCell>
                <mxCell id="109" style="edgeStyle=orthogonalEdgeStyle;rounded=0;html=1;strokeColor=#000000;fontFamily=Helvetica;fontSize=12;fontColor=#000000;startSize=26;" edge="1" parent="1" source="92" target="70">
                    <mxGeometry relative="1" as="geometry"/>
                </mxCell>
                <mxCell id="92" value="instance-handler.go" style="swimlane;fontColor=#000000;strokeColor=#000000;fillStyle=auto;gradientColor=none;fillColor=default;" vertex="1" parent="1">
                    <mxGeometry x="530" y="610" width="180" height="164" as="geometry"/>
                </mxCell>
                <mxCell id="93" value="&lt;font&gt;API&lt;/font&gt;" style="swimlane;fontStyle=0;childLayout=stackLayout;horizontal=1;startSize=26;horizontalStack=0;resizeParent=1;resizeParentMax=0;resizeLast=0;collapsible=1;marginBottom=0;html=1;fontColor=#000000;strokeColor=#000000;align=center;" vertex="1" parent="92">
                    <mxGeometry x="20" y="50" width="140" height="108" as="geometry"/>
                </mxCell>
                <mxCell id="94" value="zerolog.Logger" style="text;align=left;verticalAlign=top;spacingLeft=4;spacingRight=4;overflow=hidden;rotatable=0;points=[[0,0.5],[1,0.5]];portConstraint=eastwest;whiteSpace=wrap;html=1;fontColor=#000000;strokeColor=#000000;" vertex="1" parent="93">
                    <mxGeometry y="26" width="140" height="26" as="geometry"/>
                </mxCell>
                <mxCell id="95" value="validator.Validate" style="text;align=left;verticalAlign=top;spacingLeft=4;spacingRight=4;overflow=hidden;rotatable=0;points=[[0,0.5],[1,0.5]];portConstraint=eastwest;whiteSpace=wrap;html=1;fontColor=#000000;strokeColor=#000000;" vertex="1" parent="93">
                    <mxGeometry y="52" width="140" height="26" as="geometry"/>
                </mxCell>
                <mxCell id="96" value="K8sAPI" style="text;html=1;align=left;verticalAlign=top;resizable=0;points=[];autosize=1;strokeColor=none;fillColor=none;fontSize=12;fontFamily=Helvetica;fontColor=#000000;" vertex="1" parent="93">
                    <mxGeometry y="78" width="140" height="30" as="geometry"/>
                </mxCell>
                <mxCell id="110" style="edgeStyle=orthogonalEdgeStyle;rounded=0;html=1;strokeColor=#000000;fontFamily=Helvetica;fontSize=12;fontColor=#000000;startSize=26;" edge="1" parent="1" source="100" target="96">
                    <mxGeometry relative="1" as="geometry">
                        <Array as="points">
                            <mxPoint x="770" y="460"/>
                            <mxPoint x="770" y="750"/>
                        </Array>
                    </mxGeometry>
                </mxCell>
                <mxCell id="100" value="k8sapi.go" style="swimlane;fontColor=#000000;strokeColor=#000000;fillStyle=auto;gradientColor=none;fillColor=default;" vertex="1" parent="1">
                    <mxGeometry x="540" y="330" width="180" height="260" as="geometry"/>
                </mxCell>
                <mxCell id="101" value="&lt;font&gt;K8sAPI&lt;/font&gt;" style="swimlane;fontStyle=0;childLayout=stackLayout;horizontal=1;startSize=26;horizontalStack=0;resizeParent=1;resizeParentMax=0;resizeLast=0;collapsible=1;marginBottom=0;html=1;fontColor=#000000;strokeColor=#000000;align=center;" vertex="1" parent="100">
                    <mxGeometry x="20" y="110" width="140" height="138" as="geometry"/>
                </mxCell>
                <mxCell id="102" value="List()" style="text;align=left;verticalAlign=top;spacingLeft=4;spacingRight=4;overflow=hidden;rotatable=0;points=[[0,0.5],[1,0.5]];portConstraint=eastwest;whiteSpace=wrap;html=1;fontColor=#000000;strokeColor=#000000;" vertex="1" parent="101">
                    <mxGeometry y="26" width="140" height="26" as="geometry"/>
                </mxCell>
                <mxCell id="103" value="Create()" style="text;align=left;verticalAlign=top;spacingLeft=4;spacingRight=4;overflow=hidden;rotatable=0;points=[[0,0.5],[1,0.5]];portConstraint=eastwest;whiteSpace=wrap;html=1;fontColor=#000000;strokeColor=#000000;" vertex="1" parent="101">
                    <mxGeometry y="52" width="140" height="26" as="geometry"/>
                </mxCell>
                <mxCell id="104" value="Get()" style="text;html=1;align=left;verticalAlign=top;resizable=0;points=[];autosize=1;strokeColor=none;fillColor=none;fontSize=12;fontFamily=Helvetica;fontColor=#000000;" vertex="1" parent="101">
                    <mxGeometry y="78" width="140" height="30" as="geometry"/>
                </mxCell>
                <mxCell id="105" value="Delete()" style="text;html=1;align=left;verticalAlign=top;resizable=0;points=[];autosize=1;strokeColor=none;fillColor=none;fontSize=12;fontFamily=Helvetica;fontColor=#000000;" vertex="1" parent="101">
                    <mxGeometry y="108" width="140" height="30" as="geometry"/>
                </mxCell>
                <mxCell id="106" value="k8s.io/client-go" style="text;html=1;align=center;verticalAlign=middle;resizable=0;points=[];autosize=1;strokeColor=none;fillColor=none;fontSize=12;fontFamily=Helvetica;fontColor=#000000;" vertex="1" parent="100">
                    <mxGeometry x="12" y="28" width="100" height="30" as="geometry"/>
                </mxCell>
                <mxCell id="107" value="k8s.io/apimachinery" style="text;html=1;align=center;verticalAlign=middle;resizable=0;points=[];autosize=1;strokeColor=none;fillColor=none;fontSize=12;fontFamily=Helvetica;fontColor=#000000;" vertex="1" parent="100">
                    <mxGeometry x="10" y="50" width="130" height="30" as="geometry"/>
                </mxCell>
                <mxCell id="108" value="github.com/google/uuid" style="text;html=1;align=center;verticalAlign=middle;resizable=0;points=[];autosize=1;strokeColor=none;fillColor=none;fontSize=12;fontFamily=Helvetica;fontColor=#000000;" vertex="1" parent="100">
                    <mxGeometry x="10" y="72" width="150" height="30" as="geometry"/>
                </mxCell>
            </root>
        </mxGraphModel>
    </diagram>
</mxfile>